# xmcd
#
# Track frame offsets:
#	182
#	11477
#	20765
#	31442
#	50295
#	62527
#	74440
#	83727
#	96295
#	110962
#	121872
#	142357
#	154790
#	166610
#	182667
#	196447
#	211660
#	227907
#	240920
#	260455
#	274625
#	285010
#	305422
#	321910
#
# Disc length: 4462 seconds
#
# Revision: 7
# Processed by: cddbd v1.5.2PL0 Copyright (c) Steve Scherf et al.
# Submitted via: EZCDAudioConverter 6.0.5.1
#
DISCID=4a116c18
DTITLE=Elvis Presley - Great Country Songs
DYEAR=1967
DGENRE=Country
TTITLE0=I Forgot To Remember To Forget
TTITLE1=Blue Moon Of Kentucky
TTITLE2=When My blue Moon Turns To Gold Again
TTITLE3=Old Shep
TTITLE4=Your Cheatin' Heart (alternate take 9)
TTITLE5=(Now and Then There's) A Fool Such As I
TTITLE6=Just Call Me Lonesome (alternate take 6)
TTITLE7=There Goes My Everything (alternate take 1)
TTITLE8=Kentucky Rain
TTITLE9=From a Jack To a King
TTITLE10=I'll Hold You In My Heart
TTITLE11=I Really Don't Want To Know
TTITLE12=It Keeps Right On A-Hurtin'
TTITLE13=Green, Green Grass Of Home (alternate take 1)
TTITLE14=Fairytale (alternate take 2)
TTITLE15=Gentle On My Mind
TTITLE16=Make The World Go Away
TTITLE17=You Asked Me Too
TTITLE18=Funny How Time Slips Away
TTITLE19=Help Me Make It Through the Night (alternate take 3)
TTITLE20=Susan When She Tried
TTITLE21=He'll Have To Go
TTITLE22=Always On My Mind
TTITLE23=Guitar Man (Remake)
EXTD=
EXTT0=
EXTT1=
EXTT2=
EXTT3=
EXTT4=
EXTT5=
EXTT6=
EXTT7=
EXTT8=
EXTT9=
EXTT10=
EXTT11=
EXTT12=
EXTT13=
EXTT14=
EXTT15=
EXTT16=
EXTT17=
EXTT18=
EXTT19=
EXTT20=
EXTT21=
EXTT22=
EXTT23=
PLAYORDER=
